<?xml version="1.0" encoding="UTF-8" standalone="no"?>
<!DOCTYPE svg PUBLIC "-//W3C//DTD SVG 1.1//EN"
 "http://www.w3.org/Graphics/SVG/1.1/DTD/svg11.dtd">
<!-- Generated by graphviz version 2.40.1 (20161225.0304)
 -->
<!-- Title: habits Pages: 1 -->
<svg width="294pt" height="375pt"
 viewBox="0.00 0.00 294.00 375.00" xmlns="http://www.w3.org/2000/svg" xmlns:xlink="http://www.w3.org/1999/xlink">
<g id="graph0" class="graph" transform="scale(1 1) rotate(0) translate(4 371)">
<title>habits</title>
<polygon fill="#ffffff" stroke="transparent" points="-4,4 -4,-371 290,-371 290,4 -4,4"/>
<!-- habits -->
<g id="node1" class="node">
<title>habits</title>
<polygon fill="#efefef" stroke="transparent" points="46,-285.5 46,-320.5 240,-320.5 240,-285.5 46,-285.5"/>
<polygon fill="none" stroke="#000000" points="46,-285.5 46,-320.5 240,-320.5 240,-285.5 46,-285.5"/>
<text text-anchor="start" x="52.8782" y="-298.3" font-family="Arial Bold" font-size="18.00" fill="#000000">habits</text>
<text text-anchor="start" x="100.8932" y="-298.3" font-family="Arial" font-size="14.00" fill="#000000">    </text>
<text text-anchor="start" x="135.098" y="-298.3" font-family="Arial" font-size="14.00" fill="#666666">[BASIC TABLE]</text>
<polygon fill="none" stroke="#000000" points="46,-255.5 46,-285.5 240,-285.5 240,-255.5 46,-255.5"/>
<text text-anchor="start" x="53" y="-266.9" font-family="Arial" font-size="14.00" fill="#000000">id </text>
<text text-anchor="start" x="67.7798" y="-266.9" font-family="Arial" font-size="14.00" fill="#666666">[int]</text>
<polygon fill="none" stroke="#000000" points="46,-225.5 46,-255.5 240,-255.5 240,-225.5 46,-225.5"/>
<text text-anchor="start" x="53" y="-236.9" font-family="Arial" font-size="14.00" fill="#000000">name </text>
<text text-anchor="start" x="91.899" y="-236.9" font-family="Arial" font-size="14.00" fill="#666666">[varchar(50)]</text>
<polygon fill="none" stroke="#000000" points="46,-195.5 46,-225.5 240,-225.5 240,-195.5 46,-195.5"/>
<text text-anchor="start" x="53" y="-206.9" font-family="Arial" font-size="14.00" fill="#000000">description </text>
<text text-anchor="start" x="124.568" y="-206.9" font-family="Arial" font-size="14.00" fill="#666666">[varchar(150)]</text>
<polygon fill="none" stroke="#000000" points="46,-165.5 46,-195.5 240,-195.5 240,-165.5 46,-165.5"/>
<text text-anchor="start" x="53" y="-176.9" font-family="Arial" font-size="14.00" fill="#000000">contact_id </text>
<text text-anchor="start" x="120.6914" y="-176.9" font-family="Arial" font-size="14.00" fill="#666666">[int]</text>
<polygon fill="none" stroke="#000000" points="46,-135.5 46,-165.5 240,-165.5 240,-135.5 46,-135.5"/>
<text text-anchor="start" x="53" y="-146.9" font-family="Arial" font-size="14.00" fill="#000000">per_week </text>
<text text-anchor="start" x="117.5708" y="-146.9" font-family="Arial" font-size="14.00" fill="#666666">[int]</text>
<polygon fill="none" stroke="#000000" points="46,-105.5 46,-135.5 240,-135.5 240,-105.5 46,-105.5"/>
<text text-anchor="start" x="53" y="-116.9" font-family="Arial" font-size="14.00" fill="#000000">per_month </text>
<text text-anchor="start" x="123.798" y="-116.9" font-family="Arial" font-size="14.00" fill="#666666">[int]</text>
<polygon fill="none" stroke="#000000" points="46,-75.5 46,-105.5 240,-105.5 240,-75.5 46,-75.5"/>
<text text-anchor="start" x="53" y="-86.9" font-family="Arial" font-size="14.00" fill="#000000">per_year </text>
<text text-anchor="start" x="112.1248" y="-86.9" font-family="Arial" font-size="14.00" fill="#666666">[int]</text>
<polygon fill="none" stroke="#000000" points="46,-45.5 46,-75.5 240,-75.5 240,-45.5 46,-45.5"/>
<text text-anchor="start" x="53" y="-56.9" font-family="Arial" font-size="14.00" fill="#000000">status </text>
<text text-anchor="start" x="94.237" y="-56.9" font-family="Arial" font-size="14.00" fill="#666666">[bit]</text>
<polygon fill="none" stroke="#000000" stroke-width="3" points="44.5,-44.5 44.5,-322.5 241.5,-322.5 241.5,-44.5 44.5,-44.5"/>
</g>
</g>
</svg>
