<?xml version="1.0" encoding="UTF-8" standalone="no"?>
<!DOCTYPE svg PUBLIC "-//W3C//DTD SVG 1.1//EN"
 "http://www.w3.org/Graphics/SVG/1.1/DTD/svg11.dtd">
<!-- Generated by graphviz version 2.40.1 (20161225.0304)
 -->
<!-- Title: tracking_habits Pages: 1 -->
<svg width="1527pt" height="369pt"
 viewBox="0.00 0.00 1527.00 369.00" xmlns="http://www.w3.org/2000/svg" xmlns:xlink="http://www.w3.org/1999/xlink">
<g id="graph0" class="graph" transform="scale(1 1) rotate(0) translate(4 365)">
<title>tracking_habits</title>
<polygon fill="#ffffff" stroke="transparent" points="-4,4 -4,-365 1523,-365 1523,4 -4,4"/>
<!-- contacts -->
<g id="node1" class="node">
<title>contacts</title>
<polygon fill="#efefef" stroke="transparent" points="43.5,-252.5 43.5,-287.5 264.5,-287.5 264.5,-252.5 43.5,-252.5"/>
<polygon fill="none" stroke="#000000" points="43.5,-252.5 43.5,-287.5 264.5,-287.5 264.5,-252.5 43.5,-252.5"/>
<text text-anchor="start" x="54.3742" y="-265.3" font-family="Arial Bold" font-size="18.00" fill="#000000">contacts</text>
<text text-anchor="start" x="121.3972" y="-265.3" font-family="Arial" font-size="14.00" fill="#000000">    </text>
<text text-anchor="start" x="155.602" y="-265.3" font-family="Arial" font-size="14.00" fill="#666666">[BASIC TABLE]</text>
<polygon fill="none" stroke="#000000" points="43.5,-222.5 43.5,-252.5 264.5,-252.5 264.5,-222.5 43.5,-222.5"/>
<text text-anchor="start" x="50.5" y="-233.9" font-family="Arial" font-size="14.00" fill="#000000">id    </text>
<text text-anchor="start" x="95.594" y="-233.9" font-family="Arial" font-size="14.00" fill="#666666">[int]</text>
<polygon fill="none" stroke="#000000" points="43.5,-192.5 43.5,-222.5 264.5,-222.5 264.5,-192.5 43.5,-192.5"/>
<text text-anchor="start" x="50.5" y="-203.9" font-family="Arial" font-size="14.00" fill="#000000">name    </text>
<text text-anchor="start" x="119.7132" y="-203.9" font-family="Arial" font-size="14.00" fill="#666666">[varchar(50)]</text>
<polygon fill="none" stroke="#000000" points="43.5,-162.5 43.5,-192.5 264.5,-192.5 264.5,-162.5 43.5,-162.5"/>
<text text-anchor="start" x="50.5" y="-173.9" font-family="Arial" font-size="14.00" fill="#000000">surname    </text>
<text text-anchor="start" x="139.1564" y="-173.9" font-family="Arial" font-size="14.00" fill="#666666">[varchar(50)]</text>
<polygon fill="none" stroke="#000000" points="43.5,-132.5 43.5,-162.5 264.5,-162.5 264.5,-132.5 43.5,-132.5"/>
<text text-anchor="start" x="50.5" y="-143.9" font-family="Arial" font-size="14.00" fill="#000000">email    </text>
<text text-anchor="start" x="118.1438" y="-143.9" font-family="Arial" font-size="14.00" fill="#666666">[varchar(50)]</text>
<polygon fill="none" stroke="#000000" points="43.5,-102.5 43.5,-132.5 264.5,-132.5 264.5,-102.5 43.5,-102.5"/>
<text text-anchor="start" x="50.1557" y="-113.9" font-family="Arial" font-size="14.00" fill="#000000">phone_number    </text>
<text text-anchor="start" x="178.5077" y="-113.9" font-family="Arial" font-size="14.00" fill="#666666">[varchar(50)]</text>
<polygon fill="none" stroke="#000000" points="43.5,-72.5 43.5,-102.5 264.5,-102.5 264.5,-72.5 43.5,-72.5"/>
<text text-anchor="start" x="50.5" y="-83.9" font-family="Arial" font-size="14.00" fill="#000000">status    </text>
<text text-anchor="start" x="122.0512" y="-83.9" font-family="Arial" font-size="14.00" fill="#666666">[bit]</text>
</g>
<!-- goals -->
<g id="node2" class="node">
<title>goals</title>
<polygon fill="#efefef" stroke="transparent" points="368.5,-282.5 368.5,-317.5 571.5,-317.5 571.5,-282.5 368.5,-282.5"/>
<polygon fill="none" stroke="#000000" points="368.5,-282.5 368.5,-317.5 571.5,-317.5 571.5,-282.5 368.5,-282.5"/>
<text text-anchor="start" x="382.3793" y="-295.3" font-family="Arial Bold" font-size="18.00" fill="#000000">goals</text>
<text text-anchor="start" x="425.3921" y="-295.3" font-family="Arial" font-size="14.00" fill="#000000">    </text>
<text text-anchor="start" x="459.5969" y="-295.3" font-family="Arial" font-size="14.00" fill="#666666">[BASIC TABLE]</text>
<polygon fill="none" stroke="#000000" points="368.5,-252.5 368.5,-282.5 571.5,-282.5 571.5,-252.5 368.5,-252.5"/>
<text text-anchor="start" x="375.5" y="-263.9" font-family="Arial" font-size="14.00" fill="#000000">id    </text>
<text text-anchor="start" x="420.594" y="-263.9" font-family="Arial" font-size="14.00" fill="#666666">[int]</text>
<polygon fill="none" stroke="#000000" points="368.5,-222.5 368.5,-252.5 571.5,-252.5 571.5,-222.5 368.5,-222.5"/>
<text text-anchor="start" x="375.5" y="-233.9" font-family="Arial" font-size="14.00" fill="#000000">name    </text>
<text text-anchor="start" x="444.7132" y="-233.9" font-family="Arial" font-size="14.00" fill="#666666">[varchar(50)]</text>
<polygon fill="none" stroke="#000000" points="368.5,-192.5 368.5,-222.5 571.5,-222.5 571.5,-192.5 368.5,-192.5"/>
<text text-anchor="start" x="375.4993" y="-203.9" font-family="Arial" font-size="14.00" fill="#000000">description    </text>
<text text-anchor="start" x="477.3815" y="-203.9" font-family="Arial" font-size="14.00" fill="#666666">[varchar(150)]</text>
<polygon fill="none" stroke="#000000" points="368.5,-162.5 368.5,-192.5 571.5,-192.5 571.5,-162.5 368.5,-162.5"/>
<text text-anchor="start" x="375.5" y="-173.9" font-family="Arial" font-size="14.00" fill="#000000">contact_id    </text>
<text text-anchor="start" x="473.5056" y="-173.9" font-family="Arial" font-size="14.00" fill="#666666">[int]</text>
<polygon fill="none" stroke="#000000" points="368.5,-132.5 368.5,-162.5 571.5,-162.5 571.5,-132.5 368.5,-132.5"/>
<text text-anchor="start" x="375.5" y="-143.9" font-family="Arial" font-size="14.00" fill="#000000">start    </text>
<text text-anchor="start" x="436.9292" y="-143.9" font-family="Arial" font-size="14.00" fill="#666666">[date]</text>
<polygon fill="none" stroke="#000000" points="368.5,-102.5 368.5,-132.5 571.5,-132.5 571.5,-102.5 368.5,-102.5"/>
<text text-anchor="start" x="375.5" y="-113.9" font-family="Arial" font-size="14.00" fill="#000000">end    </text>
<text text-anchor="start" x="433.0526" y="-113.9" font-family="Arial" font-size="14.00" fill="#666666">[date]</text>
<polygon fill="none" stroke="#000000" points="368.5,-72.5 368.5,-102.5 571.5,-102.5 571.5,-72.5 368.5,-72.5"/>
<text text-anchor="start" x="375.5" y="-83.9" font-family="Arial" font-size="14.00" fill="#000000">achieved    </text>
<text text-anchor="start" x="465.7244" y="-83.9" font-family="Arial" font-size="14.00" fill="#666666">[bit]</text>
<polygon fill="none" stroke="#000000" points="368.5,-42.5 368.5,-72.5 571.5,-72.5 571.5,-42.5 368.5,-42.5"/>
<text text-anchor="start" x="375.5" y="-53.9" font-family="Arial" font-size="14.00" fill="#000000">status    </text>
<text text-anchor="start" x="447.0512" y="-53.9" font-family="Arial" font-size="14.00" fill="#666666">[bit]</text>
</g>
<!-- habits -->
<g id="node3" class="node">
<title>habits</title>
<polygon fill="#efefef" stroke="transparent" points="675.5,-282.5 675.5,-317.5 878.5,-317.5 878.5,-282.5 675.5,-282.5"/>
<polygon fill="none" stroke="#000000" points="675.5,-282.5 675.5,-317.5 878.5,-317.5 878.5,-282.5 675.5,-282.5"/>
<text text-anchor="start" x="686.8782" y="-295.3" font-family="Arial Bold" font-size="18.00" fill="#000000">habits</text>
<text text-anchor="start" x="734.8932" y="-295.3" font-family="Arial" font-size="14.00" fill="#000000">    </text>
<text text-anchor="start" x="769.098" y="-295.3" font-family="Arial" font-size="14.00" fill="#666666">[BASIC TABLE]</text>
<polygon fill="none" stroke="#000000" points="675.5,-252.5 675.5,-282.5 878.5,-282.5 878.5,-252.5 675.5,-252.5"/>
<text text-anchor="start" x="682.5" y="-263.9" font-family="Arial" font-size="14.00" fill="#000000">id    </text>
<text text-anchor="start" x="727.594" y="-263.9" font-family="Arial" font-size="14.00" fill="#666666">[int]</text>
<polygon fill="none" stroke="#000000" points="675.5,-222.5 675.5,-252.5 878.5,-252.5 878.5,-222.5 675.5,-222.5"/>
<text text-anchor="start" x="682.5" y="-233.9" font-family="Arial" font-size="14.00" fill="#000000">name    </text>
<text text-anchor="start" x="751.7132" y="-233.9" font-family="Arial" font-size="14.00" fill="#666666">[varchar(50)]</text>
<polygon fill="none" stroke="#000000" points="675.5,-192.5 675.5,-222.5 878.5,-222.5 878.5,-192.5 675.5,-192.5"/>
<text text-anchor="start" x="682.4993" y="-203.9" font-family="Arial" font-size="14.00" fill="#000000">description    </text>
<text text-anchor="start" x="784.3815" y="-203.9" font-family="Arial" font-size="14.00" fill="#666666">[varchar(150)]</text>
<polygon fill="none" stroke="#000000" points="675.5,-162.5 675.5,-192.5 878.5,-192.5 878.5,-162.5 675.5,-162.5"/>
<text text-anchor="start" x="682.5" y="-173.9" font-family="Arial" font-size="14.00" fill="#000000">contact_id    </text>
<text text-anchor="start" x="780.5056" y="-173.9" font-family="Arial" font-size="14.00" fill="#666666">[int]</text>
<polygon fill="none" stroke="#000000" points="675.5,-132.5 675.5,-162.5 878.5,-162.5 878.5,-132.5 675.5,-132.5"/>
<text text-anchor="start" x="682.5" y="-143.9" font-family="Arial" font-size="14.00" fill="#000000">per_week    </text>
<text text-anchor="start" x="777.385" y="-143.9" font-family="Arial" font-size="14.00" fill="#666666">[int]</text>
<polygon fill="none" stroke="#000000" points="675.5,-102.5 675.5,-132.5 878.5,-132.5 878.5,-102.5 675.5,-102.5"/>
<text text-anchor="start" x="682.5" y="-113.9" font-family="Arial" font-size="14.00" fill="#000000">per_month    </text>
<text text-anchor="start" x="783.6122" y="-113.9" font-family="Arial" font-size="14.00" fill="#666666">[int]</text>
<polygon fill="none" stroke="#000000" points="675.5,-72.5 675.5,-102.5 878.5,-102.5 878.5,-72.5 675.5,-72.5"/>
<text text-anchor="start" x="682.5" y="-83.9" font-family="Arial" font-size="14.00" fill="#000000">per_year    </text>
<text text-anchor="start" x="771.939" y="-83.9" font-family="Arial" font-size="14.00" fill="#666666">[int]</text>
<polygon fill="none" stroke="#000000" points="675.5,-42.5 675.5,-72.5 878.5,-72.5 878.5,-42.5 675.5,-42.5"/>
<text text-anchor="start" x="682.5" y="-53.9" font-family="Arial" font-size="14.00" fill="#000000">status    </text>
<text text-anchor="start" x="754.0512" y="-53.9" font-family="Arial" font-size="14.00" fill="#666666">[bit]</text>
</g>
<!-- time -->
<g id="node4" class="node">
<title>time</title>
<polygon fill="#efefef" stroke="transparent" points="982.5,-282.5 982.5,-317.5 1162.5,-317.5 1162.5,-282.5 982.5,-282.5"/>
<polygon fill="none" stroke="#000000" points="982.5,-282.5 982.5,-317.5 1162.5,-317.5 1162.5,-282.5 982.5,-282.5"/>
<text text-anchor="start" x="989.3883" y="-295.3" font-family="Arial Bold" font-size="18.00" fill="#000000">time</text>
<text text-anchor="start" x="1023.3831" y="-295.3" font-family="Arial" font-size="14.00" fill="#000000">    </text>
<text text-anchor="start" x="1057.5879" y="-295.3" font-family="Arial" font-size="14.00" fill="#666666">[BASIC TABLE]</text>
<polygon fill="none" stroke="#000000" points="982.5,-252.5 982.5,-282.5 1162.5,-282.5 1162.5,-252.5 982.5,-252.5"/>
<text text-anchor="start" x="989.5" y="-263.9" font-family="Arial" font-size="14.00" fill="#000000">date    </text>
<text text-anchor="start" x="1050.9432" y="-263.9" font-family="Arial" font-size="14.00" fill="#666666">[date]</text>
<polygon fill="none" stroke="#000000" points="982.5,-222.5 982.5,-252.5 1162.5,-252.5 1162.5,-222.5 982.5,-222.5"/>
<text text-anchor="start" x="989.5" y="-233.9" font-family="Arial" font-size="14.00" fill="#000000">year    </text>
<text text-anchor="start" x="1050.9306" y="-233.9" font-family="Arial" font-size="14.00" fill="#666666">[int]</text>
<polygon fill="none" stroke="#000000" points="982.5,-192.5 982.5,-222.5 1162.5,-222.5 1162.5,-192.5 982.5,-192.5"/>
<text text-anchor="start" x="989.5" y="-203.9" font-family="Arial" font-size="14.00" fill="#000000">month    </text>
<text text-anchor="start" x="1062.6038" y="-203.9" font-family="Arial" font-size="14.00" fill="#666666">[int]</text>
<polygon fill="none" stroke="#000000" points="982.5,-162.5 982.5,-192.5 1162.5,-192.5 1162.5,-162.5 982.5,-162.5"/>
<text text-anchor="start" x="989.5" y="-173.9" font-family="Arial" font-size="14.00" fill="#000000">day    </text>
<text text-anchor="start" x="1046.27" y="-173.9" font-family="Arial" font-size="14.00" fill="#666666">[int]</text>
<polygon fill="none" stroke="#000000" points="982.5,-132.5 982.5,-162.5 1162.5,-162.5 1162.5,-132.5 982.5,-132.5"/>
<text text-anchor="start" x="989.5" y="-143.9" font-family="Arial" font-size="14.00" fill="#000000">week    </text>
<text text-anchor="start" x="1056.3766" y="-143.9" font-family="Arial" font-size="14.00" fill="#666666">[int]</text>
<polygon fill="none" stroke="#000000" points="982.5,-102.5 982.5,-132.5 1162.5,-132.5 1162.5,-102.5 982.5,-102.5"/>
<text text-anchor="start" x="989.5" y="-113.9" font-family="Arial" font-size="14.00" fill="#000000">quarter    </text>
<text text-anchor="start" x="1068.047" y="-113.9" font-family="Arial" font-size="14.00" fill="#666666">[int]</text>
<polygon fill="none" stroke="#000000" points="982.5,-72.5 982.5,-102.5 1162.5,-102.5 1162.5,-72.5 982.5,-72.5"/>
<text text-anchor="start" x="989.5" y="-83.9" font-family="Arial" font-size="14.00" fill="#000000">weekday    </text>
<text text-anchor="start" x="1078.9418" y="-83.9" font-family="Arial" font-size="14.00" fill="#666666">[int]</text>
<polygon fill="none" stroke="#000000" points="982.5,-42.5 982.5,-72.5 1162.5,-72.5 1162.5,-42.5 982.5,-42.5"/>
<text text-anchor="start" x="989.5" y="-53.9" font-family="Arial" font-size="14.00" fill="#000000">weekend    </text>
<text text-anchor="start" x="1079.7244" y="-53.9" font-family="Arial" font-size="14.00" fill="#666666">[int]</text>
</g>
<!-- tracking -->
<g id="node5" class="node">
<title>tracking</title>
<polygon fill="#efefef" stroke="transparent" points="1267.5,-222.5 1267.5,-257.5 1476.5,-257.5 1476.5,-222.5 1267.5,-222.5"/>
<polygon fill="none" stroke="#000000" points="1267.5,-222.5 1267.5,-257.5 1476.5,-257.5 1476.5,-222.5 1267.5,-222.5"/>
<text text-anchor="start" x="1274.3821" y="-235.3" font-family="Arial Bold" font-size="18.00" fill="#000000">tracking</text>
<text text-anchor="start" x="1337.3893" y="-235.3" font-family="Arial" font-size="14.00" fill="#000000">    </text>
<text text-anchor="start" x="1371.5941" y="-235.3" font-family="Arial" font-size="14.00" fill="#666666">[BASIC TABLE]</text>
<polygon fill="none" stroke="#000000" points="1267.5,-192.5 1267.5,-222.5 1476.5,-222.5 1476.5,-192.5 1267.5,-192.5"/>
<text text-anchor="start" x="1274.5" y="-203.9" font-family="Arial" font-size="14.00" fill="#000000">id    </text>
<text text-anchor="start" x="1319.594" y="-203.9" font-family="Arial" font-size="14.00" fill="#666666">[int]</text>
<polygon fill="none" stroke="#000000" points="1267.5,-162.5 1267.5,-192.5 1476.5,-192.5 1476.5,-162.5 1267.5,-162.5"/>
<text text-anchor="start" x="1274.5" y="-173.9" font-family="Arial" font-size="14.00" fill="#000000">habit_id    </text>
<text text-anchor="start" x="1357.7216" y="-173.9" font-family="Arial" font-size="14.00" fill="#666666">[int]</text>
<polygon fill="none" stroke="#000000" points="1267.5,-132.5 1267.5,-162.5 1476.5,-162.5 1476.5,-132.5 1267.5,-132.5"/>
<text text-anchor="start" x="1274.5" y="-143.9" font-family="Arial" font-size="14.00" fill="#000000">date    </text>
<text text-anchor="start" x="1335.9432" y="-143.9" font-family="Arial" font-size="14.00" fill="#666666">[date]</text>
<polygon fill="none" stroke="#000000" points="1267.5,-102.5 1267.5,-132.5 1476.5,-132.5 1476.5,-102.5 1267.5,-102.5"/>
<text text-anchor="start" x="1274.5" y="-113.9" font-family="Arial" font-size="14.00" fill="#000000">level    </text>
<text text-anchor="start" x="1337.4832" y="-113.9" font-family="Arial" font-size="14.00" fill="#666666">[bit]</text>
</g>
</g>
</svg>
